<?xml version="1.0" encoding="utf-8"?>
<!-- Generator: Adobe Illustrator 16.0.0, SVG Export Plug-In . SVG Version: 6.00 Build 0)  -->
<!DOCTYPE svg PUBLIC "-//W3C//DTD SVG 1.1//EN" "http://www.w3.org/Graphics/SVG/1.1/DTD/svg11.dtd">
<svg version="1.1" id="Layer_1" xmlns="http://www.w3.org/2000/svg" xmlns:xlink="http://www.w3.org/1999/xlink" x="0px" y="0px"
	 width="1021px" height="220px" viewBox="0 0 1021 220" enable-background="new 0 0 1021 220" xml:space="preserve">
<g>
	<path d="M61.448,138.339H45.375v49.403H25.58V69.31h39.421c0,0,39.59,0,39.59,34.515c0,19.118-12.182,27.578-22.84,31.469
		l24.194,52.449H84.119L61.448,138.339z M45.375,118.713h19.626c0,0,19.795,0,19.795-14.889c0-14.72-19.795-14.72-19.795-14.72
		H45.375V118.713z"/>
	<path d="M146.891,89.104v29.608h49.234v19.626h-49.234v29.608h59.216v19.795h-79.012V69.31h79.012v19.795H146.891z"/>
	<path d="M285.967,87.413h-24.871v100.329h-19.626V87.413H216.6V69.31h69.368V87.413z"/>
	<path d="M349.924,174.038h-41.621l-5.076,13.704H281.91l47.204-121.816l47.373,121.816h-21.317L349.924,174.038z M314.732,156.95
		h28.762l-14.381-41.113L314.732,156.95z"/>
	<path d="M390.361,69.31h19.795v118.433h-19.795V69.31z"/>
	<path d="M500.843,167.947v19.795h-63.615V69.31h19.795v98.638H500.843z"/>
	<path d="M650.238,187.742h-19.795v-72.751l-34.007,72.751h-18.611l-36.206-74.274v74.274h-19.795V69.141h20.133l45.005,92.208
		l43.143-92.208h20.133V187.742z"/>
	<path d="M837.87,129.541l49.234,58.201h-25.886l-36.545-45.004l-11.167,12.52v32.484h-19.795V69.31h19.795v59.724l48.558-59.724
		h24.701L837.87,129.541z"/>
	<path d="M938.709,138.339h-16.072v49.403h-19.795V69.31h39.421c0,0,39.59,0,39.59,34.515c0,19.118-12.182,27.578-22.841,31.469
		l24.194,52.449h-21.825L938.709,138.339z M922.637,118.713h19.626c0,0,19.795,0,19.795-14.889c0-14.72-19.795-14.72-19.795-14.72
		h-19.626V118.713z"/>
</g>
<path fill="#C32026" d="M720.442,31.367l-51.501,156.01h20.425c0.694-4.653,4.3-8.351,8.924-9.133
	c-0.126-0.506-0.19-1.033-0.19-1.577c0-3.641,2.943-6.594,6.588-6.594c2.715,0,5.042,1.638,6.054,3.979
	c0.771-4.054,3.142-7.504,6.397-9.783c-0.271-5.715-1.215-17.751-4.523-26.584c0,0,7.985,3.844,15.972,0
	c0,0-3.715,12.668-4.568,23.917c0.653-0.08,1.307-0.174,1.982-0.174c8.583,0,15.543,6.959,15.543,15.54
	c0,0.253-0.013,0.506-0.019,0.755c5.409,0.248,9.76,4.374,10.459,9.654h24.258L720.442,31.367z M744.52,121.386
	c-1.355,7.05-2.661,14.144-4.009,21.191c-0.55,0.006-1.094,0.006-1.636,0.006c-0.123-4.294-0.538-8.34-1.529-11.832
	c-0.481-1.7-1.111-3.353-1.985-4.691c-0.844-1.299-1.947-2.43-3.683-2.775c-0.62,2.463-1.373,4.923-2.273,7.352l-0.006-0.003
	c-0.314,1.128-0.453,1.772-0.756,2.924c-2.106,1.401-5.003,2.157-7.944,2.113l0,0h-0.048l0,0c-2.941,0.044-5.836-0.712-7.944-2.113
	c-0.3-1.152-0.444-1.796-0.756-2.924l-0.003,0.003c-0.903-2.429-1.65-4.889-2.276-7.352c-1.738,0.346-2.836,1.477-3.677,2.775
	c-0.88,1.339-1.504,2.992-1.991,4.691c-0.986,3.492-1.406,7.538-1.53,11.832c-0.541,0-1.085,0-1.639-0.006
	c-1.343-7.047-2.649-14.141-4.009-21.191c0.006-0.102,0.006-0.201,0-0.307c0.359-3.958,1.862-6.889,3.709-9.398
	c1.729-2.352,3.78-4.38,6.106-6.156c0.077-0.06,0.147-0.129,0.221-0.185c0.073-0.054,0.153-0.118,0.244-0.134
	c0.029,0.422,0.068,0.839,0.106,1.265c-0.989-18.935,3.573-34.588,3.573-34.588c2.392-6.965,5.748-12.955,9.851-18.189
	c0.018,0,0.023-0.007,0.035,0c0,0,0,0,0,0.002c0-0.002,0.003-0.002,0.003-0.002c0.016-0.007,0.019,0,0.038,0
	c4.104,5.234,7.46,11.225,9.854,18.189c0,0,4.559,15.653,3.573,34.588c0.038-0.425,0.074-0.843,0.103-1.265
	c0.092,0.016,0.171,0.08,0.245,0.134c0.07,0.056,0.149,0.125,0.217,0.185c2.33,1.776,4.38,3.805,6.109,6.156
	c1.848,2.509,3.351,5.44,3.706,9.398C744.517,121.185,744.517,121.284,744.52,121.386z"/>
</svg>
